<?xml version="1.0" standalone="no"?>
<!DOCTYPE svg PUBLIC "-//W3C//DTD SVG 20010904//EN"
 "http://www.w3.org/TR/2001/REC-SVG-20010904/DTD/svg10.dtd">
<svg version="1.0" xmlns="http://www.w3.org/2000/svg"
 width="400.000000pt" height="400.000000pt" viewBox="0 0 400.000000 400.000000"
 preserveAspectRatio="xMidYMid meet">
<metadata>
Created by potrace 1.14, written by Peter Selinger 2001-2017
</metadata>
<g transform="translate(0.000000,400.000000) scale(0.100000,-0.100000)"
fill="#000000" stroke="none">
<path d="M0 2000 l0 -2000 867 0 c619 0 870 3 880 11 9 8 13 8 13 1 0 -7 29
-11 74 -10 67 0 75 2 81 21 l8 22 4 -23 c3 -17 11 -22 36 -22 18 0 39 5 47 10
10 6 3 7 -24 3 -29 -5 -37 -3 -32 6 5 7 15 10 23 7 8 -3 11 -1 8 4 -3 6 1 13
10 16 18 7 65 -13 78 -33 10 -16 157 -18 157 -3 0 6 -7 10 -15 10 -12 0 -12 5
4 30 10 17 16 41 13 55 -5 28 -12 31 -30 13 -17 -17 -31 4 -24 37 4 24 4 24
25 5 22 -21 27 -20 30 2 2 7 7 14 12 15 6 1 8 -10 6 -25 -4 -26 -4 -50 -2
-119 l1 -33 63 0 c35 0 68 5 74 11 8 8 13 8 17 0 5 -7 68 -11 187 -11 129 0
178 3 173 11 -5 8 -1 8 14 0 14 -8 203 -11 621 -11 l601 1 0 1999 0 2000
-2000 0 -2000 0 0 -2000z m3334 1922 c3 -5 -1 -9 -9 -9 -8 0 -12 4 -9 9 3 4 7
8 9 8 2 0 6 -4 9 -8z m-144 -12 c0 -5 -9 -10 -20 -10 -11 0 -20 5 -20 10 0 6
9 10 20 10 11 0 20 -4 20 -10z m690 -40 c0 -11 -22 -18 -38 -12 -9 3 -10 8 -2
18 12 13 40 9 40 -6z m-870 0 c0 -5 -9 -10 -21 -10 -11 0 -17 5 -14 10 3 6 13
10 21 10 8 0 14 -4 14 -10z m255 -110 c3 -5 -3 -10 -14 -10 -12 0 -21 5 -21
10 0 6 6 10 14 10 8 0 18 -4 21 -10z m675 0 c0 -5 -7 -7 -15 -4 -8 4 -15 8
-15 10 0 2 7 4 15 4 8 0 15 -4 15 -10z m-1220 -99 c0 -6 -5 -13 -10 -16 -15
-9 -43 3 -35 15 8 13 45 13 45 1z m1261 -56 c0 -5 -9 -11 -21 -13 -20 -3 -27
8 -13 22 10 9 34 3 34 -9z m-2650 -28 c-1 -12 -15 -9 -19 4 -3 6 1 10 8 8 6
-3 11 -8 11 -12z m-24 -49 c-3 -8 -6 -5 -6 6 -1 11 2 17 5 13 3 -3 4 -12 1
-19z m463 -134 c66 -1 118 -13 139 -30 11 -10 18 -21 16 -24 -3 -4 5 -16 17
-26 21 -19 21 -19 15 1 -7 19 -7 19 8 1 18 -24 13 -33 -24 -41 -16 -3 -43 -17
-61 -30 -28 -21 -30 -25 -16 -31 16 -6 16 -8 -3 -28 -17 -18 -18 -23 -6 -40 8
-10 12 -23 9 -27 -2 -4 6 -13 18 -20 13 -7 37 -23 53 -37 l30 -25 -32 6 c-24
5 -33 3 -33 -7 0 -20 -28 -28 -49 -15 -13 9 -25 8 -49 -5 -39 -20 -42 -20 -42
0 0 9 9 18 20 21 17 4 20 14 20 58 0 49 -2 53 -35 71 -19 10 -30 21 -24 25 18
11 -50 29 -107 29 -57 0 -63 6 -40 43 8 12 17 38 20 58 6 33 11 38 52 49 25 7
48 20 51 27 3 8 9 11 12 6 3 -4 22 -8 41 -9z m1435 -33 c3 -5 1 -12 -4 -15
-13 -8 -42 4 -35 15 7 12 31 12 39 0z m-157 -19 c2 -7 -6 -12 -17 -12 -21 0
-27 11 -14 24 9 9 26 2 31 -12z m-1768 -56 c0 -3 -4 -8 -10 -11 -5 -3 -10 -1
-10 4 0 6 5 11 10 11 6 0 10 -2 10 -4z m404 -112 c5 -13 -4 -15 -64 -12 -59 3
-67 5 -53 16 25 18 109 16 117 -4z m290 1 c4 -10 -1 -15 -16 -15 -17 0 -18 2
-8 15 7 8 14 15 15 15 2 0 5 -7 9 -15z m112 -34 c6 0 25 -14 43 -30 26 -24 32
-35 29 -63 -3 -32 -4 -33 -55 -36 -29 -2 -53 -7 -53 -13 0 -5 -9 -9 -20 -9
-11 0 -20 -4 -20 -9 0 -5 -21 -11 -47 -14 -27 -3 -97 -13 -157 -21 -60 -9
-112 -14 -114 -11 -3 3 -11 -3 -17 -12 -23 -31 28 -81 76 -75 9 2 27 -2 42 -7
15 -6 27 -6 29 -1 3 9 94 16 113 9 6 -2 11 0 12 6 2 9 87 38 100 33 5 -2 7 -7
5 -12 -2 -5 5 -3 15 5 49 39 65 58 60 72 -8 21 13 36 38 27 29 -10 35 -50 11
-83 -14 -19 -22 -24 -28 -15 -5 9 -8 8 -8 -4 0 -11 -5 -15 -15 -12 -11 5 -15
-1 -15 -25 0 -35 -38 -78 -74 -86 -91 -18 -176 -13 -286 15 -25 7 -61 16 -80
21 -20 5 -51 22 -69 38 -32 28 -32 30 -16 54 15 24 15 26 -8 43 -37 30 -55 91
-34 117 21 24 130 50 181 43 l47 -7 -19 -32 c-18 -31 -19 -73 -2 -62 4 3 13
-2 20 -10 13 -15 61 -21 74 -8 3 4 12 8 19 9 11 3 21 5 90 20 16 3 24 10 20
17 -4 6 -1 8 9 5 25 -10 9 41 -18 59 -22 14 -34 52 -16 54 32 3 76 10 79 13 3
3 17 2 59 -3z m-381 -21 c-3 -5 -10 -10 -16 -10 -5 0 -9 5 -9 10 0 6 7 10 16
10 8 0 12 -4 9 -10z m-100 -10 c3 -5 1 -10 -4 -10 -6 0 -11 5 -11 10 0 6 2 10
4 10 3 0 8 -4 11 -10z m-524 -57 c6 -21 17 -41 23 -45 14 -9 39 -202 37 -286
-2 -71 -15 -116 -34 -109 -16 5 -24 47 -26 140 -1 77 -6 88 -30 65 -11 -11
-12 9 -8 112 4 109 11 160 22 160 2 0 9 -17 16 -37z m898 -136 c-48 -21 -234
-37 -194 -17 27 14 217 48 229 42 6 -3 -10 -14 -35 -25z m81 -261 c0 -8 -8
-20 -17 -27 -32 -26 -73 -103 -73 -135 0 -64 87 -124 181 -124 15 0 30 -4 33
-9 6 -9 -160 -134 -252 -191 -49 -30 -55 -31 -100 -22 -26 6 -76 16 -112 22
-86 14 -156 35 -143 43 20 12 26 84 10 116 -9 17 -11 34 -6 42 5 8 9 10 9 6 0
-4 6 -2 14 5 8 7 10 15 5 19 -5 3 23 30 61 60 73 56 77 65 72 142 -1 17 2 26
8 22 6 -4 7 1 3 11 -6 15 -2 16 33 9 55 -11 102 -10 155 6 64 19 119 21 119 5z
m110 -89 c4 -5 20 -10 34 -11 24 -3 58 -27 91 -62 5 -7 22 -14 38 -18 37 -9
34 -23 -8 -43 -30 -14 -41 -15 -90 -3 -67 16 -112 42 -126 74 -9 19 -6 30 17
67 23 36 29 40 32 24 2 -11 7 -24 12 -28z m135 3 c-6 -9 43 -43 62 -43 7 0 10
-3 8 -7 -7 -12 -56 1 -62 16 -3 8 -9 14 -15 14 -5 0 -6 -4 -3 -10 4 -6 -1 -7
-11 -3 -11 4 -13 8 -6 11 8 2 9 9 2 22 -8 15 -6 17 10 13 11 -3 18 -9 15 -13z
m-245 -33 c0 -39 3 -45 42 -70 35 -23 85 -44 148 -64 11 -3 9 -8 -10 -18 -52
-27 -170 18 -183 70 -2 11 -3 4 -1 -15 2 -19 0 -30 -4 -25 -4 6 -16 15 -27 21
-30 16 -32 76 -4 114 31 41 39 38 39 -13z m-995 -27 c-12 -20 -76 -43 -87 -32
-7 7 3 16 33 30 43 19 65 20 54 2z m-108 -16 c-3 -3 -12 -4 -19 -1 -8 3 -5 6
6 6 11 1 17 -2 13 -5z m1437 -13 c3 -5 0 -11 -7 -14 -8 -3 -14 1 -14 9 0 16
13 19 21 5z m726 -48 c0 -7 -39 17 -46 28 -3 6 5 3 20 -6 14 -10 26 -19 26
-22z m-1540 -38 c-7 -8 -16 -15 -21 -15 -5 0 -6 7 -3 15 4 8 13 15 21 15 13 0
13 -3 3 -15z m1580 -123 c0 -9 -45 -77 -77 -116 -13 -16 -22 -30 -21 -32 2 -1
35 5 73 15 129 33 140 34 153 9 l12 -23 -6 23 c-3 12 -2 22 3 22 12 0 48 -41
62 -70 11 -24 11 -24 -3 -6 -9 11 -16 24 -16 30 0 5 -3 7 -6 4 -3 -4 -1 -15 5
-26 6 -11 8 -29 4 -38 -5 -15 -10 -10 -25 22 -19 41 -18 30 8 -71 9 -33 20
-77 25 -97 5 -21 13 -38 18 -38 10 0 8 31 -3 48 -4 7 -5 16 -2 19 3 4 6 0 6
-8 0 -11 2 -12 9 -1 6 10 10 4 15 -18 3 -18 3 -36 0 -41 -3 -6 0 -18 7 -27 10
-12 7 -11 -10 3 l-23 20 12 -27 c10 -21 8 -47 -10 -140 -24 -122 -48 -174 -36
-78 4 30 11 56 15 58 5 1 6 14 3 27 -2 13 2 43 10 67 13 39 13 47 -4 86 -10
23 -25 42 -32 42 -13 0 -36 -41 -36 -65 0 -8 -6 -15 -12 -16 -10 0 -10 -2 0
-6 10 -4 10 -8 1 -19 -9 -11 -9 -14 0 -14 7 0 9 -5 6 -11 -4 -6 -13 -8 -19 -6
-7 3 -19 1 -27 -4 -11 -7 -11 -9 -1 -9 7 0 10 -5 6 -11 -4 -7 1 -7 16 1 12 6
24 9 27 6 3 -3 -2 -8 -11 -12 -9 -3 -16 -10 -16 -15 0 -4 8 -5 18 -2 15 6 15
5 3 -10 -10 -13 -10 -17 -1 -17 10 0 10 -3 0 -15 -7 -8 -9 -15 -6 -15 4 0 2
-8 -3 -18 -7 -13 -6 -23 2 -31 9 -10 6 -10 -16 -2 -16 6 -29 11 -30 11 -1 0
-3 -15 -3 -33 -1 -17 1 -24 3 -14 6 24 22 22 20 -3 -1 -11 -5 -20 -10 -20 -14
0 -37 -27 -37 -44 0 -19 -17 -30 -25 -16 -10 15 -27 0 -20 -17 4 -13 3 -14 -9
-3 -13 10 -20 7 -39 -16 l-24 -27 40 -75 c21 -41 34 -71 27 -67 -17 11 4 -28
25 -45 8 -7 13 -21 10 -30 -3 -9 8 -42 24 -72 17 -33 32 -82 37 -119 4 -35 8
-66 9 -69 0 -3 4 -11 9 -19 7 -11 10 -11 17 0 7 11 9 10 9 -3 0 -9 -5 -20 -11
-23 -11 -7 -3 -64 12 -80 14 -14 11 -28 -5 -22 -8 3 -17 -1 -20 -9 -3 -8 -2
-13 3 -10 10 7 21 -17 21 -44 0 -11 8 -24 18 -29 15 -9 14 -10 -6 -11 -13 0
-20 -4 -17 -10 3 -5 1 -10 -4 -10 -6 0 -11 4 -11 10 0 5 -7 6 -17 3 -11 -4
-14 -3 -9 5 5 8 0 12 -13 12 -14 0 -19 -5 -15 -14 6 -15 -33 -43 -43 -32 -3 3
0 20 8 38 8 18 13 35 12 38 0 3 6 11 14 19 14 13 15 12 11 -11 -3 -16 0 -25 9
-25 7 0 13 10 14 21 0 21 1 21 9 1 6 -15 9 -16 9 -4 1 19 -31 59 -48 59 -6 0
-11 4 -11 8 0 17 13 21 31 11 23 -12 25 3 4 21 -8 7 -15 17 -15 23 0 5 -10 19
-22 30 -23 20 -21 20 28 0 12 -4 15 -2 12 8 -3 8 -10 13 -16 12 -5 -1 -8 7 -4
19 3 14 1 19 -6 14 -8 -5 -10 -2 -6 8 3 9 1 16 -5 16 -6 0 -11 10 -11 23 0 18
-2 19 -10 7 -9 -13 -11 -13 -20 1 -5 9 -18 27 -29 40 -22 26 -22 27 -2 -53 5
-22 5 -36 0 -32 -5 3 -9 0 -9 -6 0 -6 -5 -8 -11 -4 -8 5 -8 9 1 14 7 5 9 16 5
29 -5 17 -12 20 -28 15 -30 -9 -31 -10 -22 -31 5 -10 9 -22 10 -28 0 -5 4 -17
8 -25 16 -38 37 -107 37 -125 -1 -19 -1 -19 -14 -2 -15 20 -46 23 -46 5 0 -20
-25 23 -46 77 -10 27 -26 57 -36 67 -10 10 -18 25 -18 33 0 8 -6 15 -13 15 -8
0 -14 -7 -14 -15 0 -8 4 -15 8 -15 5 0 15 -13 24 -30 19 -38 11 -40 -10 -2
-18 29 -17 24 9 -56 10 -28 22 -52 26 -52 5 0 6 -7 3 -17 -4 -9 -2 -14 3 -11
5 3 9 -7 10 -23 1 -16 -3 -29 -7 -29 -5 0 -9 7 -9 15 0 8 -4 15 -9 15 -5 0
-11 18 -15 40 -3 23 -11 49 -16 58 -21 39 -53 119 -57 142 -5 28 -33 64 -33
42 0 -7 -4 -10 -10 -7 -15 9 -12 25 5 25 19 0 19 5 -9 64 -15 31 -26 44 -29
35 -4 -9 -6 -7 -6 6 2 40 -2 50 -11 28 -5 -13 -14 -23 -20 -23 -6 0 -8 4 -5
10 3 5 0 7 -8 4 -22 -8 -38 -46 -33 -79 9 -68 39 -211 47 -227 11 -20 -1 -24
-19 -6 -9 9 -12 9 -12 -2 0 -13 -1 -13 -9 0 -6 8 -8 18 -5 22 3 4 -2 20 -10
36 -8 16 -12 32 -9 36 4 3 2 6 -4 6 -6 0 -9 9 -6 21 5 16 8 18 15 7 18 -28 -1
69 -23 114 -21 44 -25 47 -52 42 -16 -2 -41 -11 -56 -18 -52 -26 -140 -29
-124 -3 3 6 1 7 -5 3 -6 -4 -8 -14 -5 -23 4 -11 3 -14 -5 -9 -7 4 -12 14 -12
22 0 8 -4 13 -9 9 -6 -3 -15 3 -20 14 -8 14 -8 21 2 24 6 3 -1 6 -16 6 -15 1
-39 8 -53 18 l-25 16 43 14 c24 8 67 25 97 39 30 14 60 23 67 20 8 -3 11 0 7
10 -6 15 -33 19 -49 6 -21 -18 -124 -53 -135 -46 -8 5 -9 3 -4 -6 6 -10 4 -12
-8 -7 -9 3 -18 -1 -21 -10 -5 -11 -10 -13 -20 -4 -7 6 -15 8 -19 5 -5 -5 -25
-5 -129 -2 -34 1 -108 -36 -108 -54 0 -5 5 -6 12 -2 7 5 8 3 3 -5 -4 -7 -26
-21 -48 -30 -37 -16 -47 -16 -86 -4 -24 7 -50 18 -57 24 -8 6 -20 9 -28 6 -7
-3 -19 0 -26 6 -10 9 -11 9 -6 0 4 -8 1 -13 -8 -13 -10 0 -13 6 -10 15 4 8 13
15 20 15 8 0 17 7 20 15 4 10 11 12 25 5 10 -6 28 -14 39 -20 27 -14 90 -13
90 2 0 6 12 1 27 -13 15 -13 21 -16 14 -6 -12 15 -11 20 3 36 16 18 16 19 -6
24 -36 9 -202 12 -215 4 -6 -4 -14 -3 -17 2 -3 5 -48 8 -101 7 -52 -1 -95 2
-95 7 0 4 -4 6 -8 3 -5 -3 -21 2 -36 10 -16 7 -37 14 -47 14 -10 0 -20 4 -23
9 -6 9 57 88 168 213 l60 67 74 7 c71 6 76 8 117 51 24 24 44 47 44 49 0 9 81
107 81 98 0 -4 7 1 16 12 11 14 10 9 -3 -16 -10 -19 -28 -44 -40 -55 -13 -11
-23 -24 -23 -28 0 -7 -39 -53 -78 -93 -11 -12 10 -14 135 -14 106 0 153 4 162
13 10 10 11 9 6 -4 -5 -14 9 -18 97 -29 57 -7 108 -17 115 -22 7 -5 18 -6 24
-2 8 5 9 3 4 -6 -16 -26 48 1 94 40 96 80 320 326 322 353 4 85 20 105 103
135 61 21 158 113 175 165 11 32 31 51 31 29z m-766 -106 c-3 -21 -8 -35 -11
-32 -2 2 -1 20 3 40 3 21 8 35 11 32 2 -2 1 -20 -3 -40z m256 2 l29 -26 -22
-18 c-12 -10 -19 -15 -15 -10 11 13 -27 37 -46 30 -10 -4 -18 0 -22 10 -3 9
-10 14 -14 11 -4 -3 -10 4 -13 16 -5 18 -1 19 34 16 25 -2 51 -13 69 -29z
m-1553 6 c-3 -3 -12 -4 -19 -1 -8 3 -5 6 6 6 11 1 17 -2 13 -5z m1530 -51 c2
-6 -1 -15 -8 -19 -8 -4 -9 -3 -5 4 9 15 7 15 -32 1 -26 -9 -35 -8 -47 4 -14
14 -12 16 12 19 47 5 77 2 80 -9z m-1787 -53 c38 -22 91 -49 117 -61 26 -11
72 -34 101 -52 57 -34 61 -45 38 -112 -7 -22 -24 -74 -36 -115 -13 -41 -27
-80 -32 -86 -4 -6 -6 -22 -4 -35 2 -14 -7 -42 -20 -66 -13 -23 -24 -49 -24
-57 0 -9 -8 -16 -17 -16 -15 0 -15 -2 -4 -9 9 -6 11 -16 7 -27 -4 -11 -10 -14
-14 -8 -4 6 -16 14 -27 17 -20 7 -20 7 -1 -8 19 -14 19 -15 -8 -15 -37 0 -60
-14 -87 -51 -20 -29 -21 -32 -5 -41 11 -6 14 -16 10 -34 -5 -18 -2 -24 10 -24
9 0 16 -5 16 -10 0 -6 6 -10 13 -9 34 4 39 -1 33 -34 -4 -17 -9 -45 -13 -62
-3 -16 -9 -32 -12 -35 -11 -8 -31 -84 -31 -116 0 -18 -7 -34 -20 -42 -11 -7
-20 -23 -20 -36 0 -14 -4 -27 -9 -31 -6 -3 -10 -36 -9 -73 0 -43 -6 -78 -16
-97 -9 -16 -14 -37 -11 -45 2 -8 7 -51 10 -94 4 -56 11 -83 22 -91 9 -7 13
-17 9 -23 -7 -12 -84 -37 -100 -33 -5 1 -13 -4 -17 -11 -7 -10 -9 -10 -9 1 0
8 8 20 18 27 15 12 15 13 -8 9 -23 -4 -24 -3 -7 9 17 13 17 15 -4 30 -15 10
-22 26 -22 46 0 16 -3 30 -7 30 -11 0 -10 69 1 75 6 5 5 12 -3 23 -7 9 -8 13
-2 9 7 -4 14 2 17 13 3 12 0 20 -8 20 -21 0 -28 33 -10 46 14 11 14 12 -2 18
-11 5 -13 10 -7 14 6 4 10 17 9 29 -1 12 2 20 7 17 4 -3 8 2 8 10 0 9 5 16 11
16 8 0 8 4 2 13 -14 19 -15 67 0 67 8 1 7 4 -3 13 -18 14 -18 34 -2 65 7 12 9
22 4 22 -12 0 -13 42 0 57 6 7 7 13 2 14 -5 0 0 4 11 9 19 8 19 9 -2 9 -20 1
-22 5 -19 40 2 24 -1 42 -7 45 -7 2 -3 5 8 6 18 1 18 2 -5 15 -14 8 -20 14
-13 15 13 0 14 80 2 80 -4 0 -1 24 7 53 7 28 14 63 14 77 0 14 7 34 15 44 8
11 12 28 9 39 -3 10 1 26 11 37 19 20 27 103 14 137 -6 15 -5 23 2 23 8 0 8 4
0 14 -6 7 -9 30 -7 50 3 20 2 34 -3 32 -8 -5 6 97 17 124 3 8 6 26 7 40 0 27
24 100 32 100 2 0 35 -18 73 -40z m1345 13 c-1 -16 -3 -40 -3 -55 -1 -18 -8
-28 -18 -28 -11 0 -14 -6 -9 -20 4 -13 2 -20 -5 -18 -6 2 -19 -8 -28 -22 l-16
-25 22 19 c19 16 22 17 17 4 -7 -17 -55 -54 -55 -42 0 4 14 31 31 60 17 30 28
58 25 63 -4 5 -2 11 3 13 15 5 24 48 10 48 -9 0 14 26 27 30 1 0 0 -12 -1 -27z
m86 -26 c-4 -12 -18 -27 -29 -33 -12 -6 -19 -15 -14 -20 4 -4 0 -3 -9 4 -9 6
-20 8 -24 4 -5 -4 -5 -1 -1 6 4 6 16 12 26 12 11 0 24 10 30 23 10 20 10 20
-3 5 -17 -21 -27 -23 -27 -5 0 13 40 36 52 30 4 -2 3 -14 -1 -26z m-391 -7 c0
-5 -4 -10 -9 -10 -6 0 -13 5 -16 10 -3 6 1 10 9 10 9 0 16 -4 16 -10z m455
-10 c3 -5 1 -10 -4 -10 -6 0 -11 5 -11 10 0 6 2 10 4 10 3 0 8 -4 11 -10z m42
-20 c-1 -22 -17 -28 -17 -7 0 12 9 27 16 27 2 0 2 -9 1 -20z m-35 -7 c-6 -2
-10 -9 -6 -14 3 -5 -2 -9 -10 -9 -17 0 -29 14 -19 24 3 3 16 6 27 5 12 0 15
-3 8 -6z m-368 -101 c6 -10 -40 -46 -71 -56 -13 -4 -20 -13 -17 -21 3 -8 1
-22 -4 -31 -9 -15 -10 -15 -17 7 -7 20 0 30 41 66 50 44 59 49 68 35z m1455
-34 c1 -5 -7 -8 -16 -7 -10 0 -13 3 -7 5 7 3 10 15 8 27 -4 21 -4 21 5 2 5
-11 10 -23 10 -27z m-918 5 c1 -15 2 -15 6 1 4 17 8 14 21 -15 8 -19 16 -36
16 -39 1 -3 5 -10 9 -17 5 -8 -2 -18 -17 -29 -23 -14 -27 -14 -40 -1 -8 8 -12
17 -9 21 4 3 1 6 -5 6 -7 0 -12 -7 -12 -17 0 -15 -1 -15 -18 0 -10 10 -24 17
-30 17 -6 0 -14 4 -17 10 -4 6 1 7 12 3 14 -5 16 -3 6 7 -13 14 -6 43 9 34 6
-4 6 -9 -2 -14 -8 -5 -7 -9 4 -13 9 -4 15 -1 13 6 -1 7 6 11 15 9 12 -2 16 2
12 12 -3 8 -13 12 -22 9 -14 -4 -15 -3 -2 5 10 8 19 7 29 -1 12 -10 14 -9 8 6
-3 9 -2 17 3 17 6 0 11 -8 11 -17z m51 -7 c7 4 8 2 4 -5 -9 -13 -26 -5 -25 12
0 9 2 8 6 -1 2 -6 10 -9 15 -6z m-490 -19 c-7 -8 -10 -16 -7 -19 3 -2 -1 -5
-9 -5 -12 0 -12 4 1 24 9 13 18 21 21 19 3 -3 0 -12 -6 -19z m-225 -86 c0 -11
-4 -19 -7 -18 -3 1 -53 -52 -110 -118 -107 -122 -131 -149 -260 -290 -98 -107
-107 -115 -83 -80 11 17 23 41 26 55 4 14 20 33 37 42 17 10 29 22 26 27 -4 5
-3 11 1 13 9 4 96 106 138 161 17 23 31 34 35 27 4 -7 39 23 88 76 45 48 78
92 75 97 -3 6 -1 7 6 3 6 -4 14 0 17 8 8 22 13 20 11 -3z m-323 -33 c-4 -13
-15 -30 -24 -38 -9 -8 -15 -22 -13 -30 3 -9 -2 -8 -12 5 -9 12 -12 21 -5 23 6
2 17 17 25 33 18 35 40 39 29 7z m31 -88 c3 -5 1 -10 -4 -10 -6 0 -11 5 -11
10 0 6 2 10 4 10 3 0 8 -4 11 -10z m-259 -145 c2 -5 -10 -26 -25 -45 l-29 -35
-13 29 c-12 26 -11 30 10 48 25 19 52 21 57 3z m-1 -118 c19 -4 19 -5 -1 -6
-12 0 -28 7 -35 17 -12 15 -12 16 1 6 8 -7 24 -14 35 -17z m-160 3 c-3 -5 -13
-10 -21 -10 -8 0 -14 5 -14 10 0 6 9 10 21 10 11 0 17 -4 14 -10z m25 -29 c0
-5 -9 -7 -20 -4 -11 3 -20 7 -20 9 0 2 9 4 20 4 11 0 20 -4 20 -9z m356 -156
c1 -8 -4 -15 -11 -15 -8 0 -11 7 -8 20 6 22 15 19 19 -5z m-191 -15 c3 -5 31
-17 61 -26 29 -8 54 -16 54 -18 0 -8 -77 -2 -87 6 -9 7 -13 7 -13 -1 0 -6 -7
-11 -16 -11 -10 0 -14 -7 -12 -22 3 -21 -1 -23 -46 -22 -49 1 -49 1 -95 -62
-25 -35 -47 -61 -49 -59 -2 2 23 42 57 88 34 46 61 87 61 91 0 13 44 45 62 46
9 0 20 -4 23 -10z m-288 -93 c-23 -34 -50 -71 -60 -82 -10 -11 -27 -36 -38
-55 -19 -35 -19 -35 -13 -5 4 17 14 46 22 65 19 42 112 151 124 144 4 -3 -11
-33 -35 -67z m751 47 c28 -19 28 -28 0 -43 -13 -6 -41 -25 -63 -41 -46 -35
-84 -54 -103 -51 -7 1 -11 -3 -10 -10 4 -15 -160 -98 -192 -97 -16 0 -19 2 -8
5 9 2 15 10 12 17 -5 12 78 56 104 56 11 0 72 30 72 35 0 3 -8 2 -17 -1 -15
-5 -15 -4 -3 4 8 6 17 9 22 6 4 -3 35 9 70 27 55 28 60 33 45 44 -23 17 -21
22 8 29 14 4 24 10 24 14 -4 26 8 28 39 6z m45 -19 c-3 -9 -8 -14 -10 -11 -3
3 -2 9 2 15 9 16 15 13 8 -4z m188 -5 c22 0 44 -14 86 -56 46 -43 53 -54 33
-48 -14 3 -28 13 -33 20 -4 7 -14 11 -22 8 -8 -4 -12 -10 -9 -15 3 -5 -3 -12
-13 -16 -10 -3 -36 -20 -58 -38 -59 -47 -67 -50 -65 -29 4 35 -1 39 -13 11
l-12 -29 -28 22 c-22 18 -27 19 -27 5 0 -13 -4 -14 -21 -4 -15 8 -19 8 -15 0
7 -11 -5 -15 -34 -12 -12 2 -12 0 -2 -7 19 -13 -10 -24 -29 -11 -11 7 -9 13
11 29 14 10 36 21 50 24 14 2 1 3 -27 3 -52 -2 -53 -2 -30 15 28 22 14 23 -18
2 -14 -9 -22 -21 -18 -27 3 -5 2 -7 -4 -4 -6 4 -20 -4 -32 -17 -16 -17 -33
-24 -56 -23 -19 1 -32 5 -29 9 3 4 -2 8 -11 8 -9 0 -13 5 -10 10 3 6 15 10 26
10 10 0 19 7 19 15 0 8 7 15 16 15 8 0 22 6 29 13 34 29 45 37 55 37 6 0 24
14 39 31 25 27 33 30 61 24 30 -7 31 -8 14 -26 -9 -10 -13 -19 -8 -19 18 0 35
17 36 36 2 22 49 27 70 7 24 -25 31 -12 7 13 l-24 27 34 -7 c18 -3 46 -6 62
-6z m-636 -48 c-7 -8 -65 10 -60 18 3 4 18 3 35 -3 16 -6 27 -13 25 -15z m-68
-25 c4 -7 0 -8 -11 -4 -10 4 -22 7 -27 7 -5 0 -9 4 -9 9 0 12 38 2 47 -12z
m1483 -32 c0 -8 4 -15 9 -15 5 0 6 -20 3 -45 -4 -40 -3 -45 13 -39 13 5 16 2
13 -16 -1 -13 -10 -25 -18 -27 -13 -4 -13 -3 0 6 13 10 8 15 -12 12 -8 -1 -10
12 -11 56 -1 12 -5 19 -9 17 -5 -3 -8 10 -6 30 2 34 18 52 18 21z m-1565 -43
c-3 -3 -11 0 -18 7 -9 10 -8 11 6 5 10 -3 15 -9 12 -12z m1649 -1 c10 -11 18
-39 20 -73 1 -30 11 -66 20 -80 17 -26 17 -28 -8 -55 -15 -15 -24 -34 -21 -40
2 -7 -2 -13 -9 -13 -8 0 -15 16 -19 40 -3 22 -12 47 -21 56 -13 12 -14 19 -5
30 6 8 9 21 5 29 -3 8 0 15 6 15 6 0 9 2 6 6 -3 3 -2 21 2 40 4 19 4 37 -1 40
-11 7 -12 24 -1 24 5 0 17 -8 26 -19z m-474 -1 c0 -5 -2 -10 -4 -10 -3 0 -8 5
-11 10 -3 6 -1 10 4 10 6 0 11 -4 11 -10z m-1160 -31 c0 -5 -4 -9 -8 -9 -5 0
-9 7 -9 15 0 8 4 12 9 9 4 -3 8 -9 8 -15z m493 2 c-6 -23 27 -44 52 -34 15 5
16 3 4 -18 -7 -13 -12 -25 -11 -26 1 -2 -1 -3 -5 -3 -4 0 -8 8 -8 17 0 9 -7
18 -15 20 -12 4 -12 3 -1 -5 9 -7 10 -12 2 -16 -6 -4 -9 -12 -6 -17 4 -5 2 -9
-4 -9 -5 0 -9 13 -9 29 1 33 -9 54 -23 46 -5 -4 -9 -2 -9 4 0 8 25 28 37 31 0
0 -1 -9 -4 -19z m954 -26 c-13 -27 -27 -33 -27 -10 0 11 22 32 37 35 0 0 -4
-11 -10 -25z m-854 8 c-7 -2 -19 -2 -25 0 -7 3 -2 5 12 5 14 0 19 -2 13 -5z
m47 -3 c0 -5 -5 -10 -11 -10 -5 0 -7 5 -4 10 3 6 8 10 11 10 2 0 4 -4 4 -10z
m-226 -25 c3 -8 1 -15 -3 -15 -5 0 -11 7 -15 15 -3 8 -1 15 3 15 5 0 11 -7 15
-15z m-79 -12 c-11 -10 -28 -27 -38 -38 -18 -20 -18 -20 -8 2 6 12 21 29 33
37 30 21 37 20 13 -1z m527 -15 c-7 -7 -12 -8 -12 -2 0 14 12 26 19 19 2 -3
-1 -11 -7 -17z m885 -10 c-3 -8 -6 -5 -6 6 -1 11 2 17 5 13 3 -3 4 -12 1 -19z
m-1018 -14 c2 -2 0 -4 -6 -4 -6 0 -27 -11 -47 -25 l-36 -24 -1 22 c0 12 -3 16
-6 9 -2 -6 -9 -10 -14 -6 -5 3 -9 0 -9 -5 0 -6 5 -11 10 -11 6 0 10 -5 10 -11
0 -8 -5 -8 -15 1 -23 19 -110 6 -148 -22 -28 -21 -36 -22 -64 -13 -46 15 -46
18 -13 50 30 29 46 33 153 34 16 1 26 5 23 10 -4 5 2 7 12 5 9 -3 28 -1 42 4
22 8 97 -1 109 -14z m-588 -37 c9 -7 19 -22 23 -35 6 -19 4 -22 -17 -22 -18 0
-26 6 -29 25 -3 14 -1 25 6 25 6 0 4 5 -4 10 -8 5 -10 10 -5 10 6 -1 17 -6 26
-13z m1379 3 c0 -5 -5 -10 -11 -10 -5 0 -7 5 -4 10 3 6 8 10 11 10 2 0 4 -4 4
-10z m-1190 -10 c-8 -5 -22 -9 -30 -9 -10 0 -8 3 5 9 27 12 43 12 25 0z m-63
-16 c-3 -3 -12 -4 -19 -1 -8 3 -5 6 6 6 11 1 17 -2 13 -5z m336 -11 c-7 -2
-13 -12 -13 -20 0 -11 -6 -14 -21 -10 -16 4 -30 -2 -50 -24 -29 -31 -59 -38
-59 -14 0 31 47 66 85 63 19 -1 37 1 41 5 4 4 12 7 18 6 6 0 5 -3 -1 -6z
m-225 -18 c36 -19 33 -45 -5 -45 -21 0 -24 4 -20 21 5 19 4 20 -12 5 -21 -19
-31 -20 -31 -3 0 14 19 37 30 37 4 0 21 -7 38 -15z m1462 -6 c0 -6 -4 -7 -10
-4 -5 3 -10 11 -10 16 0 6 5 7 10 4 6 -3 10 -11 10 -16z m-1977 -24 c-9 -19
-18 -33 -21 -31 -4 5 26 66 33 66 3 0 -3 -16 -12 -35z m1697 23 c0 -11 -38
-10 -44 1 -3 5 5 8 19 7 14 0 25 -4 25 -8z m-1379 -29 c-34 -28 -47 -23 -14 5
15 13 30 22 33 19 3 -2 -6 -13 -19 -24z m1629 -44 c6 4 10 1 10 -4 0 -6 -5
-11 -11 -11 -5 0 -7 -5 -4 -10 4 -6 11 -8 16 -5 5 4 9 -4 9 -17 0 -13 5 -29
10 -34 16 -16 1 -44 -24 -44 -17 0 -18 -2 -6 -10 12 -7 13 -11 2 -22 -11 -11
-15 -10 -22 3 -7 11 -22 15 -56 14 l-47 -2 24 17 c20 16 21 20 10 34 -11 13
-11 16 0 17 11 0 11 2 1 6 -7 3 -20 -3 -28 -13 -14 -18 -15 -17 -8 6 9 35 23
48 33 31 5 -8 11 -9 15 -3 3 6 2 12 -3 14 -4 1 -5 12 0 23 6 15 8 16 8 4 1
-22 38 -31 45 -12 3 8 -1 27 -9 43 -8 16 -15 33 -15 37 1 4 10 -9 21 -30 11
-21 24 -35 29 -32z m-93 33 c-3 -8 -6 -5 -6 6 -1 11 2 17 5 13 3 -3 4 -12 1
-19z m-957 8 c0 -3 -4 -8 -10 -11 -5 -3 -10 -1 -10 4 0 6 5 11 10 11 6 0 10
-2 10 -4z m-569 -30 c-17 -20 1 -28 43 -21 21 4 36 3 41 -5 8 -13 -13 -42 -26
-34 -5 3 -9 0 -9 -7 0 -7 -3 -9 -6 -6 -4 4 -1 13 5 21 9 10 9 16 1 21 -7 4
-14 -2 -17 -14 l-5 -21 -18 20 c-20 24 -30 25 -30 6 0 -8 -4 -17 -9 -21 -6 -3
-8 3 -6 14 6 30 24 61 37 61 7 0 7 -4 -1 -14z m-196 -6 c-3 -5 -10 -10 -16
-10 -5 0 -9 5 -9 10 0 6 7 10 16 10 8 0 12 -4 9 -10z m1380 -20 c3 -5 -1 -10
-9 -10 -9 0 -16 5 -16 10 0 6 4 10 9 10 6 0 13 -4 16 -10z m575 -14 c0 -3 -4
-8 -10 -11 -5 -3 -10 -1 -10 4 0 6 5 11 10 11 6 0 10 -2 10 -4z m37 -2 c-3 -3
-12 -4 -19 -1 -8 3 -5 6 6 6 11 1 17 -2 13 -5z m-1452 -44 c3 -5 1 -10 -4 -10
-6 0 -11 5 -11 10 0 6 2 10 4 10 3 0 8 -4 11 -10z m205 -14 c0 -3 -4 -8 -10
-11 -5 -3 -10 -1 -10 4 0 6 5 11 10 11 6 0 10 -2 10 -4z m-580 -36 c0 -10 -4
-22 -10 -25 -6 -4 -10 7 -10 25 0 18 4 29 10 25 6 -3 10 -15 10 -25z m-180 -6
c0 -9 -11 -14 -31 -14 l-31 0 23 19 c25 20 39 19 39 -5z m400 0 c0 -2 -7 -4
-15 -4 -8 0 -15 4 -15 10 0 5 7 7 15 4 8 -4 15 -8 15 -10z m790 -14 c0 -5 -4
-10 -10 -10 -5 0 -10 5 -10 10 0 6 5 10 10 10 6 0 10 -4 10 -10z m-1286 -15
c-4 -8 -8 -15 -10 -15 -2 0 -4 7 -4 15 0 8 4 15 10 15 5 0 7 -7 4 -15z m1116
0 c0 -8 -2 -15 -4 -15 -2 0 -6 7 -10 15 -3 8 -1 15 4 15 6 0 10 -7 10 -15z
m-757 -9 c19 -15 24 -31 5 -20 -7 5 -9 0 -6 -14 4 -13 0 -23 -9 -26 -32 -13
-52 -5 -67 26 -20 40 -20 39 8 32 13 -3 27 -1 30 5 9 14 17 13 39 -3z m737 4
c3 0 -7 -8 -23 -16 -32 -17 -54 -10 -36 12 9 11 24 12 59 4z m185 -10 c-3 -5
-10 -10 -16 -10 -5 0 -9 5 -9 10 0 6 7 10 16 10 8 0 12 -4 9 -10z m-1025 -9
c0 -5 -7 -12 -16 -15 -14 -5 -15 -4 -4 9 14 17 20 19 20 6z m-43 -67 c-2 -2
-18 -7 -35 -10 -27 -5 -31 -4 -26 9 3 10 -2 18 -15 22 -12 3 -21 11 -21 17 0
5 6 7 13 4 6 -3 20 -9 30 -12 9 -4 17 -11 17 -16 0 -5 5 -6 11 -3 6 4 8 14 4
23 -3 8 0 19 7 23 9 6 14 0 16 -22 2 -17 2 -33 -1 -35z m1905 24 c-7 -7 -12
-8 -12 -2 0 14 12 26 19 19 2 -3 -1 -11 -7 -17z m-1437 -35 c11 5 14 1 11 -15
-3 -25 -26 -37 -26 -14 0 10 -6 13 -16 9 -9 -3 -20 0 -25 8 -7 11 -9 9 -9 -8
0 -21 -1 -21 -32 -6 l-31 16 33 30 33 29 23 -27 c14 -17 29 -25 39 -22z m-950
27 c-3 -5 2 -10 11 -10 10 0 14 -3 11 -7 -4 -3 4 -21 18 -38 13 -18 27 -45 31
-59 6 -25 4 -27 -17 -24 -13 1 -27 8 -31 13 -9 12 -38 -4 -48 -26 -4 -8 -12
-24 -18 -35 -6 -12 -14 -38 -17 -57 -13 -68 -59 -76 -67 -13 -2 20 -1 41 3 48
9 15 -9 65 -27 72 -8 3 -11 12 -8 21 4 9 1 27 -6 40 -18 33 -10 45 40 65 49
20 135 26 125 10z m753 -23 c2 -12 -1 -15 -12 -11 -22 8 -30 36 -9 32 10 -2
19 -11 21 -21z m686 -36 c-8 -10 -33 30 -27 44 5 14 8 12 18 -11 7 -16 11 -31
9 -33z m767 16 c4 -15 4 -27 0 -27 -13 0 -31 24 -31 43 0 27 23 15 31 -16z
m-1557 -11 c-3 -14 -10 -26 -15 -26 -14 0 -11 48 4 53 17 6 19 3 11 -27z
m-865 20 c-22 -22 -84 -56 -95 -52 -21 8 -17 28 4 22 9 -3 28 3 42 14 21 16
63 30 49 16z m717 -23 c-10 -10 -19 5 -10 18 6 11 8 11 12 0 2 -7 1 -15 -2
-18z m234 7 c0 -5 -2 -10 -4 -10 -3 0 -8 5 -11 10 -3 6 -1 10 4 10 6 0 11 -4
11 -10z m-428 -15 c0 -19 -31 -30 -44 -17 -7 8 -8 13 -3 12 22 -5 36 1 29 11
-4 7 -2 10 5 8 7 -3 13 -9 13 -14z m788 5 c0 -5 -2 -10 -4 -10 -3 0 -8 5 -11
10 -3 6 -1 10 4 10 6 0 11 -4 11 -10z m105 0 c-3 -5 -14 -10 -23 -10 -15 0
-15 2 -2 10 20 13 33 13 25 0z m-135 -11 c0 -5 10 -9 23 -10 15 -1 11 -5 -17
-13 -21 -7 -43 -19 -50 -27 -6 -8 -18 -13 -28 -11 -22 4 -31 29 -10 29 48 0
53 3 43 22 -9 16 -7 19 14 19 14 0 25 -4 25 -9z m295 -19 l29 -11 -29 -24
c-21 -16 -31 -20 -33 -10 -2 8 -11 11 -23 8 -18 -5 -19 -3 -11 13 6 10 13 28
17 39 4 13 9 16 13 8 4 -7 21 -17 37 -23z m-405 1 c0 -5 -7 -14 -15 -21 -12
-10 -15 -10 -15 2 0 8 3 18 7 21 9 10 23 9 23 -2z m-710 -11 c0 -5 -2 -10 -4
-10 -3 0 -8 5 -11 10 -3 6 -1 10 4 10 6 0 11 -4 11 -10z m338 -16 c13 -24 3
-54 -18 -54 -10 0 -20 9 -23 20 -3 11 -13 20 -22 20 -14 0 -15 3 -5 15 17 20
57 19 68 -1z m672 -4 c0 -5 -4 -10 -10 -10 -5 0 -10 5 -10 10 0 6 5 10 10 10
6 0 10 -4 10 -10z m139 -60 c-2 -65 -19 -85 -19 -22 0 38 9 82 17 82 2 0 3
-27 2 -60z m-1708 -53 c-7 -7 -12 -1 -17 19 -5 18 -3 29 4 32 7 2 13 16 14 30
1 15 3 5 5 -22 2 -27 0 -53 -6 -59z m1779 62 c0 -10 -4 -19 -10 -19 -5 0 -10
12 -10 26 0 14 4 23 10 19 6 -3 10 -15 10 -26z m795 11 c3 -5 -1 -10 -9 -10
-9 0 -16 5 -16 10 0 6 4 10 9 10 6 0 13 -4 16 -10z m-1925 -14 c0 -3 -4 -8
-10 -11 -5 -3 -10 -1 -10 4 0 6 5 11 10 11 6 0 10 -2 10 -4z m540 -11 c10 -13
9 -15 -9 -15 -12 0 -21 6 -21 15 0 8 4 15 9 15 5 0 14 -7 21 -15z m377 9 c-3
-3 -12 -4 -19 -1 -8 3 -5 6 6 6 11 1 17 -2 13 -5z m-820 -41 c-3 -3 -11 -2
-17 2 -9 6 -9 10 1 16 14 8 27 -7 16 -18z m725 -3 c-12 -10 -18 -20 -15 -24 4
-3 0 -6 -9 -6 -16 0 -18 34 -3 47 4 5 5 2 1 -4 -4 -7 -3 -13 2 -13 6 0 13 7
16 16 3 8 11 12 18 8 8 -5 5 -12 -10 -24z m304 11 c13 -10 20 -21 17 -25 -3
-3 -1 -6 5 -6 6 0 15 7 20 16 5 9 12 12 15 7 4 -6 -8 -23 -25 -39 -17 -16 -28
-24 -24 -17 4 7 -2 14 -15 18 -11 4 -18 13 -16 20 3 7 -1 12 -10 11 -9 0 -17
7 -18 17 -4 23 21 22 51 -2z m-651 -1 c-3 -5 -1 -10 5 -10 6 0 8 -5 5 -10 -4
-6 -11 -8 -16 -5 -12 8 -11 35 2 35 5 0 7 -4 4 -10z m-169 -21 c19 -11 34 -25
34 -30 0 -15 -19 -10 -38 9 -10 10 -24 16 -30 14 -7 -2 -12 3 -12 12 0 21 6
20 46 -5z m571 1 c3 -11 10 -17 16 -13 6 3 7 1 3 -5 -5 -8 -13 -9 -26 -2 -13
7 -21 6 -30 -5 -18 -21 -29 -19 -23 5 3 11 12 20 19 20 8 0 14 5 14 10 0 18
22 10 27 -10z m-940 -17 c4 -10 11 -21 17 -25 13 -9 5 -17 -22 -23 -23 -4 -39
10 -23 19 5 3 7 15 4 26 -7 25 15 27 24 3z m663 11 c0 -3 -5 -14 -10 -25 -17
-30 26 -25 56 8 13 14 25 24 27 22 25 -44 26 -47 8 -68 -23 -26 -76 -28 -90
-3 -6 9 -11 11 -11 5 0 -7 -4 -13 -9 -13 -7 0 -8 24 -3 68 2 11 32 18 32 6z
m1435 -4 c3 -5 1 -10 -4 -10 -6 0 -11 5 -11 10 0 6 2 10 4 10 3 0 8 -4 11 -10z
m32 -22 c-3 -7 -5 -2 -5 12 0 14 2 19 5 13 2 -7 2 -19 0 -25z m-1697 7 c0 -8
-4 -15 -10 -15 -5 0 -10 7 -10 15 0 8 5 15 10 15 6 0 10 -7 10 -15z m833 -15
c3 -11 1 -20 -4 -20 -5 0 -9 9 -9 20 0 11 2 20 4 20 2 0 6 -9 9 -20z m-1073
-10 c0 -5 -4 -10 -10 -10 -5 0 -10 5 -10 10 0 6 5 10 10 10 6 0 10 -4 10 -10z
m840 0 c0 -5 -5 -10 -11 -10 -5 0 -7 5 -4 10 3 6 8 10 11 10 2 0 4 -4 4 -10z
m-726 -32 c8 -33 -9 -44 -38 -24 -35 23 -34 46 3 46 21 0 30 -6 35 -22z m657
1 c-2 -8 -3 -27 -2 -42 1 -17 -3 -26 -9 -22 -15 9 -13 88 3 82 6 -2 10 -11 8
-18z m-164 -39 c-1 -22 -17 -28 -17 -7 0 12 9 27 16 27 2 0 2 -9 1 -20z m-651
-11 c18 -20 18 -21 -6 -40 -43 -32 -85 -22 -113 27 -11 19 18 24 48 8 25 -13
27 -12 32 6 7 25 15 25 39 -1z m1014 11 c0 -5 -4 -10 -10 -10 -5 0 -10 5 -10
10 0 6 5 10 10 10 6 0 10 -4 10 -10z m33 -19 c4 -18 14 -31 29 -36 19 -6 14
-9 -27 -16 -27 -4 -51 -7 -52 -5 -8 7 10 35 18 30 5 -3 9 -2 8 3 -4 22 2 53
10 53 5 0 11 -13 14 -29z m-1708 10 c3 -6 -3 -9 -14 -8 -11 0 -17 5 -15 9 7
11 22 10 29 -1z m1091 -11 c23 0 16 -24 -11 -37 -23 -10 -36 -1 -16 11 5 3 7
16 5 29 -2 12 -2 16 2 10 3 -7 12 -13 20 -13z m-1009 -26 c-9 -9 -27 6 -27 22
0 13 2 13 16 -1 9 -9 14 -18 11 -21z m754 3 c-8 -8 -11 -7 -11 4 0 20 13 34
18 19 3 -7 -1 -17 -7 -23z m149 23 c0 -5 -2 -10 -4 -10 -3 0 -8 5 -11 10 -3 6
-1 10 4 10 6 0 11 -4 11 -10z m155 -10 c3 -5 1 -10 -4 -10 -6 0 -11 5 -11 10
0 6 2 10 4 10 3 0 8 -4 11 -10z m950 0 c3 -5 1 -10 -4 -10 -6 0 -11 5 -11 10
0 6 2 10 4 10 3 0 8 -4 11 -10z m-1105 -20 c0 -5 -5 -10 -11 -10 -5 0 -7 5 -4
10 3 6 8 10 11 10 2 0 4 -4 4 -10z m1180 0 c0 -5 -4 -10 -10 -10 -5 0 -10 5
-10 10 0 6 5 10 10 10 6 0 10 -4 10 -10z m-1130 -15 c0 -19 -16 -19 -24 0 -3
9 0 15 9 15 8 0 15 -7 15 -15z"/>
<path d="M1760 2790 c0 -5 5 -10 10 -10 6 0 10 5 10 10 0 6 -4 10 -10 10 -5 0
-10 -4 -10 -10z"/>
<path d="M2874 1884 c3 -8 2 -13 -2 -10 -5 3 -44 -31 -88 -75 -43 -45 -127
-119 -186 -166 -60 -47 -108 -90 -108 -95 0 -7 14 -8 35 -5 24 4 33 2 29 -5
-4 -7 -2 -8 5 -4 6 4 9 11 6 16 -3 4 16 20 42 35 126 73 122 71 68 21 -27 -25
-76 -62 -107 -83 -31 -20 -55 -40 -52 -44 2 -5 11 -6 19 -3 8 4 12 10 9 15 -3
5 3 12 13 16 10 3 25 12 33 19 8 6 32 17 53 22 35 10 37 9 25 -6 -9 -13 -7
-12 10 2 12 11 22 16 22 11 0 -4 7 -1 17 6 10 9 42 14 92 14 69 0 84 -4 159
-41 45 -23 82 -38 82 -34 0 4 -7 10 -15 14 -27 10 -17 27 13 21 l27 -6 -25 15
c-14 8 -20 16 -15 16 6 1 -10 8 -34 15 -25 8 -48 12 -53 9 -4 -3 -8 -1 -8 5 0
6 -7 8 -15 5 -8 -4 -15 -1 -15 5 0 6 -5 11 -11 11 -17 0 -41 28 -27 32 14 5
18 49 5 66 -5 6 -6 12 -2 12 4 0 3 6 -2 13 -12 14 -11 26 11 90 20 61 20 87 0
87 -10 0 -14 -5 -10 -16z m-14 -44 c-6 -11 -13 -20 -16 -20 -2 0 0 9 6 20 6
11 13 20 16 20 2 0 0 -9 -6 -20z"/>
<path d="M3276 1884 c-5 -14 -4 -15 9 -4 17 14 19 20 6 20 -5 0 -12 -7 -15
-16z"/>
<path d="M2783 1833 c-3 -10 -9 -22 -11 -28 -3 -5 2 -4 11 4 9 7 15 17 12 21
-3 5 1 11 7 13 10 4 10 6 0 6 -7 1 -15 -7 -19 -16z"/>
<path d="M2721 1757 l-34 -42 38 37 c22 21 37 39 34 42 -2 2 -19 -14 -38 -37z"/>
<path d="M2609 1563 c-13 -16 -12 -17 4 -4 9 7 17 15 17 17 0 8 -8 3 -21 -13z"/>
<path d="M2620 1518 c-12 -8 -12 -9 2 -5 9 3 19 1 22 -6 3 -9 5 -9 5 0 1 18
-13 23 -29 11z"/>
<path d="M2608 1483 c7 -3 16 -2 19 1 4 3 -2 6 -13 5 -11 0 -14 -3 -6 -6z"/>
<path d="M2631 1413 c-42 -41 -21 -43 36 -4 39 26 41 29 20 33 -15 3 -33 -6
-56 -29z"/>
<path d="M2728 1443 c6 -2 18 -2 25 0 6 3 1 5 -13 5 -14 0 -19 -2 -12 -5z"/>
<path d="M2401 1409 c-61 -39 -75 -56 -26 -31 49 25 82 49 75 55 -3 2 -25 -9
-49 -24z"/>
<path d="M2530 1401 c-14 -27 -13 -31 8 -31 14 0 15 -2 2 -10 -17 -11 -1 -13
24 -4 15 6 15 8 -1 19 -15 11 -15 15 -4 29 11 14 11 16 -2 16 -9 0 -21 -9 -27
-19z"/>
<path d="M2595 1410 c-3 -5 -1 -10 4 -10 6 0 11 5 11 10 0 6 -2 10 -4 10 -3 0
-8 -4 -11 -10z"/>
<path d="M2560 1390 c0 -5 5 -10 10 -10 6 0 10 5 10 10 0 6 -4 10 -10 10 -5 0
-10 -4 -10 -10z"/>
<path d="M2341 1314 c0 -11 3 -14 6 -6 3 7 2 16 -1 19 -3 4 -6 -2 -5 -13z"/>
<path d="M2966 1240 c3 -19 7 -43 7 -52 1 -10 4 -18 8 -18 4 0 9 -8 13 -17 3
-10 8 -23 11 -29 3 -6 -1 -11 -9 -11 -8 0 -13 4 -10 9 3 4 -2 8 -10 8 -19 0
-20 -5 -6 -30 7 -13 6 -19 -6 -24 -8 -3 -12 -2 -9 3 3 5 1 12 -4 15 -12 8 -38
-35 -33 -57 2 -12 9 -16 22 -12 12 4 22 -1 29 -12 6 -10 11 -13 11 -8 0 6 -5
16 -12 23 -8 8 -5 14 15 23 15 7 23 17 20 25 -3 8 0 14 6 14 6 0 11 -7 11 -16
0 -10 5 -14 16 -10 8 3 12 2 9 -4 -4 -6 6 -10 22 -10 25 1 26 2 11 14 -22 16
-23 30 -3 22 13 -5 13 -2 -1 19 -9 14 -21 22 -26 19 -5 -4 -8 4 -6 17 2 20 -1
24 -21 21 -20 -2 -22 0 -11 13 10 13 11 18 1 28 -10 9 -11 8 -5 -8 13 -36 -10
-5 -29 38 -18 42 -18 42 -11 7z"/>
<path d="M2840 1211 c0 -5 4 -12 10 -16 5 -3 7 -11 5 -18 -3 -7 -1 -19 5 -27
7 -11 12 -12 21 -3 9 9 6 19 -15 43 -14 17 -26 27 -26 21z"/>
<path d="M2443 1176 c0 -8 6 -12 14 -9 7 3 10 9 7 14 -8 14 -21 11 -21 -5z"/>
<path d="M2901 1168 c2 -13 0 -30 -5 -38 -5 -8 1 -5 14 7 14 13 20 28 17 37
-10 24 -29 19 -26 -6z"/>
<path d="M3120 1159 c0 -5 5 -7 10 -4 6 3 10 8 10 11 0 2 -4 4 -10 4 -5 0 -10
-5 -10 -11z"/>
<path d="M3145 1120 c-3 -5 2 -24 11 -42 10 -18 19 -28 21 -21 2 7 -1 21 -7
33 -6 11 -8 25 -5 30 3 6 2 10 -4 10 -5 0 -13 -4 -16 -10z"/>
<path d="M2530 1830 c-9 -6 -10 -10 -3 -10 6 0 15 5 18 10 8 12 4 12 -15 0z"/>
<path d="M2515 1800 c3 -5 8 -10 11 -10 2 0 4 5 4 10 0 6 -5 10 -11 10 -5 0
-7 -4 -4 -10z"/>
<path d="M1269 1147 c-8 -24 -5 -34 12 -30 23 6 25 19 4 27 -8 3 -15 4 -16 3z"/>
<path d="M1890 1082 c0 -9 30 -72 34 -72 4 0 -2 46 -9 63 -7 17 -25 24 -25 9z"/>
<path d="M2010 1060 c8 -5 20 -10 25 -10 6 0 3 5 -5 10 -8 5 -19 10 -25 10 -5
0 -3 -5 5 -10z"/>
<path d="M1805 1040 c-3 -5 -1 -10 4 -10 6 0 11 5 11 10 0 6 -2 10 -4 10 -3 0
-8 -4 -11 -10z"/>
<path d="M3000 609 c0 -5 6 -9 14 -9 7 0 21 -10 30 -22 l17 -23 -13 25 c-7 14
-12 27 -11 30 1 3 -7 7 -18 7 -10 1 -19 -2 -19 -8z"/>
<path d="M3000 571 c0 -17 18 -21 24 -6 3 9 0 15 -9 15 -8 0 -15 -4 -15 -9z"/>
</g>
</svg>
